<?xml version="1.0" encoding="iso-8859-1"?>
<!-- Generator: Adobe Illustrator 19.0.0, SVG Export Plug-In . SVG Version: 6.00 Build 0)  -->
<svg version="1.1" id="Capa_1" xmlns="http://www.w3.org/2000/svg" xmlns:xlink="http://www.w3.org/1999/xlink" x="0px" y="0px"
	 viewBox="0 0 512 512" style="enable-background:new 0 0 512 512;" xml:space="preserve">
<g>
	<g>
		<g>
			<path d="M0,0v208h32v-48h448v48h32V0H0z M480,128H32V32h448V128z"/>
			<polygon points="480,480 32,480 32,432 0,432 0,512 512,512 512,432 480,432 			"/>
			<rect x="64" y="64" width="32" height="32"/>
			<rect x="128" y="64" width="32" height="32"/>
			<rect x="192" y="64" width="256" height="32"/>
			<path d="M16,336v16c0,26.51,21.49,48,48,48s48-21.49,48-48V240H80v112c0,8.837-7.163,16-16,16s-16-7.163-16-16v-16H16z"/>
			<polygon points="272,240 272,342.624 320,390.624 368,342.624 368,240 336,240 336,329.376 320,345.376 304,329.376 304,240 			
				"/>
			<path d="M496,400V288c0-26.51-21.49-48-48-48c-26.51,0-48,21.49-48,48v112h32v-32h32v32H496z M432,336v-48
				c0-8.837,7.163-16,16-16s16,7.163,16,16v48H432z"/>
			<path d="M240,400V288c0-26.51-21.49-48-48-48c-26.51,0-48,21.49-48,48v112h32v-32h32v32H240z M176,336v-48
				c0-8.837,7.163-16,16-16s16,7.163,16,16v48H176z"/>
		</g>
	</g>
</g>
<g>
</g>
<g>
</g>
<g>
</g>
<g>
</g>
<g>
</g>
<g>
</g>
<g>
</g>
<g>
</g>
<g>
</g>
<g>
</g>
<g>
</g>
<g>
</g>
<g>
</g>
<g>
</g>
<g>
</g>
</svg>
