<svg id="Capa_1" enable-background="new 0 0 512 512" height="512" viewBox="0 0 512 512" width="512" xmlns="http://www.w3.org/2000/svg"><g><g><path d="m10 432.21v-239.177c0-68.706 55.691-124.403 124.39-124.403 68.699 0 124.39 55.697 124.39 124.403v239.177" fill="#8481e2"/><path d="m218.221 213.985h-1.577l-.004-30.182h-26.533l-22.853-33.507-23.921 33.507h-91.753l-.004 30.182h-1.018c-8.893 0-16.466 6.916-16.782 15.804-.332 9.331 7.133 17.001 16.389 17.001h2.898l1.429 6.557c0 46.915 56.386 66.833 63.317 67.825l-8.23 31.243h49.059l-8.23-31.244c6.929-.992 63.318-20.685 63.318-67.824l1.429-6.557h3.458c9.256 0 16.721-7.669 16.389-17.001-.315-8.888-7.888-15.804-16.781-15.804z" fill="#ffcbbe"/><path d="m10 442.386v-59.657c0-16.742 13.571-30.314 30.311-30.314h188.155c16.742 0 30.314 13.574 30.314 30.317v59.654z" fill="#f5737f"/><g><g><g><path d="m94.636 249.948c-5.523 0-10-4.477-10-10v-13.604c0-5.523 4.477-10 10-10s10 4.477 10 10v13.604c0 5.523-4.477 10-10 10z"/></g></g><g><g><path d="m174.144 249.948c-5.523 0-10-4.477-10-10v-13.604c0-5.523 4.477-10 10-10s10 4.477 10 10v13.604c0 5.523-4.477 10-10 10z"/></g></g></g><g><path d="m134.409 295.615c-8.303 0-16.045-4.468-20.206-11.66-2.765-4.781-1.132-10.898 3.649-13.664 4.781-2.764 10.898-1.132 13.664 3.649.606 1.049 1.688 1.675 2.893 1.675s2.287-.626 2.893-1.674c2.766-4.782 8.883-6.415 13.663-3.65 4.781 2.765 6.415 8.882 3.65 13.663-4.16 7.193-11.902 11.661-20.206 11.661z"/></g><g><g><path d="m134.39 407.137-40.634-54.722h81.268z" fill="#e5ecec"/></g><path d="m134.39 58.63c-74.103 0-134.39 60.293-134.39 134.403v249.354c0 5.523 4.477 10 10 10h248.78c5.523 0 10-4.477 10-10v-249.354c0-74.11-60.287-134.403-134.39-134.403zm0 20c63.075 0 114.39 51.321 114.39 114.403v154.887c-5.969-3.497-12.911-5.505-20.314-5.505h-62.119l-3.829-14.537c7.895-3.034 18.345-8.145 28.051-15.241 20.753-15.172 32.146-34.594 33.094-56.324 5.285-1.015 10.118-3.623 13.947-7.591 5.021-5.202 7.644-12.052 7.387-19.288-.404-11.375-7.958-20.785-18.354-24.136l-.003-21.496c-.001-5.522-4.477-9.999-10-9.999h-21.248l-19.876-29.142c-1.841-2.7-4.886-4.33-8.154-4.365-3.231-.039-6.347 1.529-8.246 4.189l-20.93 29.317h-86.606c-5.522 0-10 4.477-10 9.999l-.003 21.684c-10.106 3.504-17.397 12.779-17.794 23.949-.257 7.236 2.366 14.085 7.387 19.288 3.693 3.826 8.319 6.388 13.384 7.476.916 21.685 12.309 41.116 33.087 56.347 9.734 7.136 20.181 12.27 28.066 15.318l-3.833 14.552h-61.563c-7.402 0-14.343 2.008-20.311 5.504v-154.886c0-63.082 51.315-114.403 114.39-114.403zm-8.21 237.021c-1.576-2.378-4.058-3.963-6.882-4.367-6.83-1.225-54.805-19.382-54.805-57.937 0-.716-.077-1.43-.229-2.13l-1.429-6.557c-1.001-4.594-5.068-7.87-9.77-7.87h-2.898c-1.752 0-3.388-.695-4.606-1.957-1.217-1.261-1.853-2.926-1.79-4.688.121-3.397 3.166-6.16 6.789-6.16h1.018c5.522 0 10-4.477 10-9.999l.002-20.183h81.755c3.23 0 6.262-1.561 8.139-4.19l15.595-21.844 14.779 21.669c1.863 2.731 4.955 4.365 8.261 4.365h16.534l.002 20.183c0 5.522 4.478 9.999 10 9.999h1.577c3.623 0 6.668 2.763 6.789 6.16.063 1.763-.573 3.428-1.791 4.689-1.218 1.262-2.853 1.956-4.605 1.956h-3.458c-4.703 0-8.77 3.276-9.771 7.871l-1.429 6.557c-.153.699-.23 1.413-.23 2.129 0 38.638-47.971 56.724-54.735 57.925-2.824.404-5.34 1.995-6.917 4.373-1.576 2.377-2.063 5.315-1.336 8.074l4.925 18.697h-23.109l4.925-18.696c.727-2.76.276-5.692-1.3-8.069zm28.964 46.764-20.753 27.948-20.753-27.948zm93.636 69.971h-228.78v-49.657c0-11.201 9.111-20.314 20.311-20.314h48.415l37.636 50.684c1.887 2.54 4.864 4.038 8.029 4.038s6.142-1.498 8.029-4.038l37.636-50.684h48.411c11.201 0 20.314 9.114 20.314 20.317v49.654z"/></g></g><g><g><g><ellipse cx="404.999" cy="230.46" fill="#c4ead9" rx="58.398" ry="58.391" transform="matrix(.002 -1 1 .002 173.882 635.085)"/><path d="m404.999 298.858c-37.711 0-68.392-30.683-68.392-68.398 0-37.714 30.68-68.397 68.392-68.397 37.711 0 68.391 30.683 68.391 68.397 0 37.715-30.68 68.398-68.391 68.398zm0-116.795c-26.683 0-48.392 21.711-48.392 48.397 0 26.687 21.708 48.398 48.392 48.398s48.391-21.711 48.391-48.398c0-26.686-21.708-48.397-48.391-48.397z"/></g><g><path d="m398.786 253.567c-2.652 0-5.196-1.054-7.071-2.929l-13.784-13.786c-3.905-3.906-3.905-10.237.001-14.142s10.237-3.904 14.142 0l6.713 6.713 19.139-19.141c3.905-3.905 10.237-3.906 14.142-.001s3.906 10.237 0 14.142l-26.211 26.213c-1.876 1.877-4.419 2.931-7.071 2.931z"/></g></g><g><g><g><g><path d="m308 412.22c-4.122 0-7.905-2.616-9.36-6.472-1.493-3.954-.264-8.579 3.016-11.251 3.243-2.642 7.886-2.994 11.481-.846 3.578 2.138 5.489 6.44 4.663 10.529-.934 4.621-5.078 8.04-9.8 8.04z"/></g><g><path d="m502 412.225h-148.923c-5.523 0-10-4.477-10-10s4.477-10 10-10h148.923c5.523 0 10 4.477 10 10s-4.477 10-10 10z"/></g></g></g><g><g><g><path d="m308 371.08c-4.178 0-8.007-2.711-9.415-6.636-1.389-3.872-.196-8.328 2.946-10.986 3.29-2.783 8.084-3.127 11.745-.864 3.494 2.16 5.334 6.41 4.523 10.436-.928 4.612-5.082 8.05-9.799 8.05z"/></g><g><path d="m502 371.08h-148.923c-5.523 0-10-4.477-10-10s4.477-10 10-10h148.923c5.523 0 10 4.477 10 10s-4.477 10-10 10z"/></g></g></g><g><path d="m502 453.37h-194.002c-5.523 0-10-4.477-10-10s4.477-10 10-10h194.002c5.523 0 10 4.477 10 10s-4.477 10-10 10z"/></g></g></g></g></svg>